<svg xmlns="http://www.w3.org/2000/svg" width="60" height="60" viewBox="0 0 60 60">
  <defs>
    <style>
      .cls-1 {
        fill: #14cc0e;
      }
    </style>
  </defs>
  <path id="Icon_metro-earth" data-name="Icon metro-earth" class="cls-1" d="M32.571,1.928a30,30,0,1,0,30,30,30,30,0,0,0-30-30Zm0,56.25a26.162,26.162,0,0,1-10.385-2.136L35.847,40.674a1.875,1.875,0,0,0,.474-1.246V33.8a1.875,1.875,0,0,0-1.875-1.875c-6.621,0-13.606-6.883-13.674-6.951a1.875,1.875,0,0,0-1.326-.549h-7.5A1.875,1.875,0,0,0,10.071,26.3v11.25a1.875,1.875,0,0,0,1.037,1.677l6.463,3.232V53.471A26.266,26.266,0,0,1,8.848,20.678H15.7a1.875,1.875,0,0,0,1.326-.549l7.5-7.5a1.875,1.875,0,0,0,.549-1.326V6.767a26.324,26.324,0,0,1,19,1.559c-.243.205-.479.42-.706.647a11.251,11.251,0,0,0,7.947,19.206q.278,0,.558-.014c.809,3.035,2.271,10.937-.492,21.816a1.87,1.87,0,0,0-.049.306,26.168,26.168,0,0,1-18.758,7.89Z" transform="translate(-2.571 -1.928)"/>
</svg>
