<svg xmlns="http://www.w3.org/2000/svg" width="50" height="50" viewBox="0 0 50 50">
  <defs>
    <style>
      .cls-1 {
        fill: #858585;
      }
    </style>
  </defs>
  <path id="Icon_awesome-search" data-name="Icon awesome-search" class="cls-1" d="M49.32,43.228l-9.737-9.735a2.342,2.342,0,0,0-1.66-.684H36.331a20.305,20.305,0,1,0-3.516,3.515v1.592a2.342,2.342,0,0,0,.684,1.66l9.737,9.735a2.335,2.335,0,0,0,3.311,0l2.764-2.763a2.354,2.354,0,0,0,.01-3.32ZM20.314,32.809a12.5,12.5,0,1,1,12.5-12.5A12.493,12.493,0,0,1,20.314,32.809Z"/>
</svg>
