<svg xmlns="http://www.w3.org/2000/svg" width="96" height="73.64" viewBox="0 0 96 73.64">
  <defs>
    <style>
      .cls-1 {
        fill: #ff8c00;
      }
    </style>
  </defs>
  <path id="Icon_simple-hipchat" data-name="Icon simple-hipchat" class="cls-1" d="M78.944,61.173s.412-.24,1.068-.65C89.84,54.283,96,45.236,96,35.175,96,16.408,74.508,1.181,48.012,1.181S0,16.408,0,35.175,21.484,69.182,47.992,69.182a66.74,66.74,0,0,0,10.1-.749l1.048-.148c6.732,3.586,16.556,6.535,25.152,6.535,2.66,0,3.912-1.793,2.208-3.625C83.9,68.585,80.332,64.4,78.944,61.173ZM73.1,46.31C70.232,49.821,61.36,55.8,48.08,55.8H47.9c-13.312,0-22.172-6.013-25.016-9.487a3.5,3.5,0,0,1-1.092-1.885A1.742,1.742,0,0,1,23.576,42.7a.257.257,0,0,1,.084-.01,2.9,2.9,0,0,1,1.312.365A41.732,41.732,0,0,0,47.988,49.8a40.187,40.187,0,0,0,23.04-6.761,2.083,2.083,0,0,1,1.252-.4,1.789,1.789,0,0,1,1.932,1.56,3.969,3.969,0,0,1-1.072,2.112H73.1Z" transform="translate(0 -1.181)"/>
</svg>
