<svg xmlns="http://www.w3.org/2000/svg" width="60" height="60" viewBox="0 0 60 60">
  <defs>
    <style>
      .cls-1 {
        fill: #858585;
      }
    </style>
  </defs>
  <path id="Icon_awesome-book-open" data-name="Icon awesome-book-open" class="cls-1" d="M56.482,2.257C50.774,2.673,39.428,4.19,32.423,9.7a2.247,2.247,0,0,0-.757,1.764V60.2c0,1.547,1.316,2.525,2.425,1.807,7.206-4.663,17.628-5.936,22.782-6.284C58.632,55.6,60,53.788,60,51.615V6.369C60,4,58.4,2.118,56.482,2.257ZM27.577,9.7c-7-5.512-18.349-7.027-24.058-7.445C1.6,2.118,0,4,0,6.369V51.616c0,2.175,1.368,3.988,3.127,4.106,5.155.348,15.583,1.622,22.789,6.288,1.106.717,2.418-.26,2.418-1.8V11.442A2.193,2.193,0,0,0,27.577,9.7Z" transform="translate(0 -2.25)"/>
</svg>
