<svg xmlns="http://www.w3.org/2000/svg" width="60" height="60" viewBox="0 0 60 60">
  <defs>
    <style>
      .cls-1 {
        fill: #858585;
      }
    </style>
  </defs>
  <path id="Icon_awesome-chalkboard-teacher" data-name="Icon awesome-chalkboard-teacher" class="cls-1" d="M19.5,41.25a1.755,1.755,0,0,0-.662.128,10.159,10.159,0,0,1-3.838.81,10.168,10.168,0,0,1-3.839-.81,1.75,1.75,0,0,0-.661-.128c-5.818,0-10.531,5.916-10.5,13.2C.013,57.525,2.037,60,4.5,60h21c2.463,0,4.487-2.475,4.5-5.552C30.031,47.166,25.318,41.25,19.5,41.25ZM15,37.5c4.971,0,9-5.037,9-11.25S19.971,15,15,15,6,20.037,6,26.25,10.029,37.5,15,37.5ZM55.5,0h-36C17.018,0,15,2.607,15,5.811V11.25a10.152,10.152,0,0,1,6,2.086V7.5H54V41.25H48v-7.5H36v7.5H28.852a15.849,15.849,0,0,1,3.721,7.5H55.5c2.482,0,4.5-2.607,4.5-5.811V5.811C60,2.607,57.981,0,55.5,0Z" transform="translate(0)"/>
</svg>
